<svg xmlns="http://www.w3.org/2000/svg" version="1.1" xmlns:xlink="http://www.w3.org/1999/xlink" xmlns:svgjs="http://svgjs.com/svgjs" width="1440" height="250" preserveAspectRatio="none" viewBox="0 0 1440 250"><g mask="url(&quot;#SvgjsMask1006&quot;)" fill="none"><path d="M44 250L294 0L501 0L251 250z" fill="url(#SvgjsLinearGradient1007)"></path><path d="M246.60000000000002 250L496.6 0L600.1 0L350.1 250z" fill="url(#SvgjsLinearGradient1007)"></path><path d="M512.2 250L762.2 0L1045.7 0L795.7 250z" fill="url(#SvgjsLinearGradient1007)"></path><path d="M714.8000000000001 250L964.8000000000001 0L1248.3000000000002 0L998.3000000000001 250z" fill="url(#SvgjsLinearGradient1007)"></path><path d="M1436 250L1186 0L1133.5 0L1383.5 250z" fill="url(#SvgjsLinearGradient1008)"></path><path d="M1191.4 250L941.4000000000001 0L743.4000000000001 0L993.4000000000001 250z" fill="url(#SvgjsLinearGradient1008)"></path><path d="M944.8 250L694.8 0L585.3 0L835.3 250z" fill="url(#SvgjsLinearGradient1008)"></path><path d="M723.1999999999999 250L473.19999999999993 0L231.69999999999993 0L481.69999999999993 250z" fill="url(#SvgjsLinearGradient1008)"></path><path d="M1253.9208070604177 250L1440 63.920807060417644L1440 250z" fill="url(#SvgjsLinearGradient1007)"></path><path d="M0 250L186.07919293958236 250L 0 63.920807060417644z" fill="url(#SvgjsLinearGradient1008)"></path></g><defs><mask id="SvgjsMask1006"><rect width="1440" height="250" fill="#ffffff" style="--darkreader-inline-fill: #e8e6e3;" data-darkreader-inline-fill=""></rect></mask><linearGradient x1="0%" y1="100%" x2="100%" y2="0%" id="SvgjsLinearGradient1007"><stop stop-color="rgba(86, 15, 185, 0.34)" offset="0" style="--darkreader-inline-stopcolor: rgba(69, 12, 148, 0.34);" data-darkreader-inline-stopcolor=""></stop><stop stop-opacity="0" stop-color="rgba(86, 15, 185, 0.34)" offset="0.66" style="--darkreader-inline-stopcolor: rgba(69, 12, 148, 0.34);" data-darkreader-inline-stopcolor=""></stop></linearGradient><linearGradient x1="100%" y1="100%" x2="0%" y2="0%" id="SvgjsLinearGradient1008"><stop stop-color="rgba(86, 15, 185, 0.34)" offset="0" style="--darkreader-inline-stopcolor: rgba(69, 12, 148, 0.34);" data-darkreader-inline-stopcolor=""></stop><stop stop-opacity="0" stop-color="rgba(86, 15, 185, 0.34)" offset="0.66" style="--darkreader-inline-stopcolor: rgba(69, 12, 148, 0.34);" data-darkreader-inline-stopcolor=""></stop></linearGradient></defs></svg>